<svg width="268" height="87" viewBox="0 0 268 87" fill="none" xmlns="http://www.w3.org/2000/svg">
<path d="M8.95997 46.865V36.855H20.01C22.61 36.855 24.8633 36.3567 26.77 35.36C28.72 34.3633 30.215 32.89 31.255 30.94C32.295 28.9467 32.815 26.5417 32.815 23.725C32.815 20.9517 32.2733 18.6117 31.19 16.705C30.15 14.755 28.6767 13.2817 26.77 12.285C24.8633 11.2883 22.61 10.79 20.01 10.79H8.43997V0.780001H20.075C23.6283 0.780001 26.9 1.3433 29.89 2.47C32.88 3.5533 35.48 5.1133 37.69 7.15C39.9 9.1867 41.6117 11.6133 42.825 14.43C44.0817 17.2467 44.71 20.3667 44.71 23.79C44.71 27.2567 44.0817 30.3983 42.825 33.215C41.6117 36.0317 39.9 38.4583 37.69 40.495C35.48 42.5317 32.88 44.1133 29.89 45.24C26.9433 46.3233 23.715 46.865 20.205 46.865H8.95997ZM1.09497 46.865V0.780001H12.73V46.865H1.09497ZM47.1632 46.865L65.0382 0.780001H76.2832L93.9632 46.865H81.8082L68.4832 8.125H72.7082L59.0582 46.865H47.1632ZM58.0182 38.805V29.575H83.4332V38.805H58.0182ZM111.946 47.58C108.089 47.58 104.731 46.995 101.871 45.825C99.054 44.655 96.4759 42.8133 94.1359 40.3L101.481 32.89C103.084 34.58 104.796 35.88 106.616 36.79C108.436 37.6567 110.494 38.09 112.791 38.09C114.741 38.09 116.236 37.765 117.276 37.115C118.359 36.4217 118.901 35.49 118.901 34.32C118.901 33.2367 118.511 32.3483 117.731 31.655C116.951 30.9183 115.911 30.29 114.611 29.77C113.354 29.2067 111.946 28.6867 110.386 28.21C108.869 27.69 107.331 27.0833 105.771 26.39C104.254 25.6533 102.846 24.765 101.546 23.725C100.289 22.685 99.271 21.385 98.491 19.825C97.711 18.265 97.321 16.3367 97.321 14.04C97.321 11.0933 98.014 8.58 99.401 6.5C100.831 4.42 102.803 2.8167 105.316 1.69C107.829 0.5633 110.754 0 114.091 0C117.428 0 120.504 0.5633 123.321 1.69C126.138 2.8167 128.456 4.3767 130.276 6.37L122.866 13.715C121.479 12.3283 120.071 11.2883 118.641 10.595C117.211 9.9017 115.651 9.555 113.961 9.555C112.358 9.555 111.101 9.8367 110.191 10.4C109.281 10.9633 108.826 11.765 108.826 12.805C108.826 13.845 109.216 14.69 109.996 15.34C110.776 15.99 111.794 16.575 113.051 17.095C114.351 17.5717 115.759 18.07 117.276 18.59C118.836 19.11 120.374 19.7167 121.891 20.41C123.408 21.1033 124.794 21.9917 126.051 23.075C127.351 24.1583 128.391 25.5233 129.171 27.17C129.951 28.8167 130.341 30.81 130.341 33.15C130.341 37.7433 128.716 41.2967 125.466 43.81C122.259 46.3233 117.753 47.58 111.946 47.58ZM136.237 46.865V0.780001H147.872V46.865H136.237ZM164.447 46.865V0.780001H176.082V46.865H164.447ZM142.867 28.145V18.395H168.672V28.145H142.867ZM184.288 46.865V0.780001H195.923V46.865H184.288ZM193.518 46.865V37.05H218.478V46.865H193.518ZM193.518 28.145V18.59H216.138V28.145H193.518ZM193.518 10.595V0.780001H218.088V10.595H193.518ZM234.27 28.21V19.89H243.045C244.952 19.89 246.404 19.435 247.4 18.525C248.44 17.5717 248.96 16.2933 248.96 14.69C248.96 13.13 248.44 11.8733 247.4 10.92C246.404 9.9233 244.952 9.425 243.045 9.425H234.27V0.780001H244.67C247.79 0.780001 250.52 1.365 252.86 2.535C255.244 3.705 257.107 5.3083 258.45 7.345C259.794 9.3817 260.465 11.765 260.465 14.495C260.465 17.225 259.772 19.63 258.385 21.71C257.042 23.7467 255.157 25.35 252.73 26.52C250.304 27.6467 247.465 28.21 244.215 28.21H234.27ZM225.04 46.865V0.780001H236.675V46.865H225.04ZM250 46.865L236.61 27.105L247.075 24.57L263.455 46.865H250Z" fill="#0B1F3A"/>
<path d="M0 62.865H254L232 82.365" stroke="#0B1F3A" stroke-width="10"/>
</svg>
